<?xml version="1.0" encoding="UTF-8"?>
<svg xmlns="http://www.w3.org/2000/svg" xmlns:xlink="http://www.w3.org/1999/xlink" width="284pt" height="284pt" viewBox="0 0 284 284" version="1.1">
<defs>
<clipPath id="clip1">
  <path d="M 0 0.535156 L 283.46875 0.535156 L 283.46875 284 L 0 284 Z M 0 0.535156 "/>
</clipPath>
</defs>
<g id="surface1">
<g clip-path="url(#clip1)" clip-rule="nonzero">
<path style=" stroke:none;fill-rule:nonzero;fill:rgb(5.783081%,12.275696%,27.894592%);fill-opacity:1;" d="M 283.46875 284 L 0 284 L 0 0.535156 L 283.46875 0.535156 L 283.46875 284 "/>
</g>
<path style=" stroke:none;fill-rule:nonzero;fill:rgb(100%,100%,100%);fill-opacity:1;" d="M 56.101562 236.339844 C 56.101562 226.449219 51.304688 219.546875 43.214844 219.546875 C 34.421875 219.546875 30.320312 227.835938 30.320312 236.339844 C 30.320312 246.226562 35.117188 253.125 43.214844 253.125 C 52.007812 253.125 56.101562 244.835938 56.101562 236.339844 Z M 62.101562 236.144531 C 62.101562 247.023438 53.707031 254.921875 43.214844 254.921875 C 32.519531 254.921875 24.324219 246.933594 24.324219 236.535156 C 24.324219 225.648438 32.71875 217.75 43.214844 217.75 C 53.910156 217.75 62.101562 225.746094 62.101562 236.144531 "/>
<path style=" stroke:none;fill-rule:nonzero;fill:rgb(100%,100%,100%);fill-opacity:1;" d="M 171.433594 236.339844 C 171.433594 226.449219 166.632812 219.546875 158.542969 219.546875 C 149.746094 219.546875 145.652344 227.835938 145.652344 236.339844 C 145.652344 246.226562 150.449219 253.125 158.542969 253.125 C 167.335938 253.125 171.433594 244.835938 171.433594 236.339844 Z M 177.429688 236.144531 C 177.429688 247.023438 169.035156 254.921875 158.542969 254.921875 C 147.847656 254.921875 139.652344 246.933594 139.652344 236.535156 C 139.652344 225.648438 148.046875 217.75 158.542969 217.75 C 169.234375 217.75 177.429688 225.746094 177.429688 236.144531 "/>
<path style=" stroke:none;fill-rule:nonzero;fill:rgb(100%,100%,100%);fill-opacity:1;" d="M 200.316406 242.328125 C 198.214844 239.332031 197.414062 238.238281 194.820312 238.238281 L 192.019531 238.238281 L 192.019531 250.429688 C 192.019531 251.429688 192.417969 251.917969 193.519531 252.125 L 197.617188 253.023438 L 197.617188 254.328125 L 181.527344 254.328125 L 181.527344 253.023438 L 185.226562 252.125 C 186.320312 251.828125 186.722656 251.429688 186.722656 250.429688 L 186.722656 222.246094 C 186.722656 221.242188 186.320312 220.847656 185.226562 220.546875 L 181.527344 219.648438 L 181.527344 218.34375 L 197.214844 218.34375 C 200.515625 218.34375 202.8125 218.648438 204.710938 219.34375 C 208.609375 220.847656 210.808594 224.550781 210.808594 228.039062 C 210.808594 232.441406 207.511719 236.144531 202.011719 237.429688 L 202.011719 237.628906 C 203.113281 238.140625 203.710938 238.835938 207.609375 243.9375 L 212.507812 250.429688 C 213.207031 251.429688 214.105469 252.023438 215.207031 252.226562 L 218.804688 253.023438 L 218.804688 254.328125 L 210.210938 254.328125 C 209.210938 254.328125 208.710938 254.023438 207.8125 252.820312 Z M 192.019531 236.535156 L 196.515625 236.535156 C 203.3125 236.535156 204.8125 232.242188 204.8125 228.140625 C 204.8125 225.042969 203.414062 222.144531 200.214844 220.746094 C 198.515625 220.046875 196.917969 220.046875 194.71875 220.046875 L 192.019531 220.046875 L 192.019531 236.535156 "/>
<path style=" stroke:none;fill-rule:nonzero;fill:rgb(100%,100%,100%);fill-opacity:1;" d="M 129.859375 230.636719 L 131.359375 230.636719 L 131.359375 242.632812 L 129.859375 242.632812 L 128.957031 239.039062 C 128.65625 237.734375 127.859375 237.238281 126.660156 237.238281 L 117.964844 237.238281 L 117.964844 250.429688 C 117.964844 251.429688 118.363281 251.917969 119.464844 252.125 L 123.5625 253.023438 L 123.5625 254.328125 L 107.472656 254.328125 L 107.472656 253.023438 L 111.171875 252.125 C 112.269531 251.828125 112.671875 251.429688 112.671875 250.429688 L 112.671875 222.246094 C 112.671875 221.242188 112.269531 220.847656 111.171875 220.546875 L 107.472656 219.648438 L 107.472656 218.34375 L 134.65625 218.34375 L 134.65625 227.347656 L 133.15625 227.347656 L 131.457031 221.945312 C 131.058594 220.546875 130.457031 220.046875 129.257812 220.046875 L 117.964844 220.046875 L 117.964844 235.535156 L 126.660156 235.535156 C 127.859375 235.535156 128.558594 235.042969 128.957031 233.734375 L 129.859375 230.636719 "/>
<path style=" stroke:none;fill-rule:nonzero;fill:rgb(100%,100%,100%);fill-opacity:1;" d="M 232.195312 220.046875 L 232.195312 251.023438 C 232.195312 252.328125 232.492188 252.632812 233.792969 252.632812 L 238.191406 252.632812 C 242.386719 252.632812 245.484375 252.023438 247.683594 250.429688 C 251.382812 247.734375 253.082031 242.835938 253.082031 236.636719 C 253.082031 230.539062 251.382812 224.550781 246.386719 221.648438 C 244.289062 220.445312 241.589844 220.046875 237.390625 220.046875 Z M 221.699219 254.328125 L 221.699219 253.023438 L 225.398438 252.125 C 226.5 251.828125 226.898438 251.429688 226.898438 250.429688 L 226.898438 222.246094 C 226.898438 221.242188 226.5 220.847656 225.398438 220.546875 L 221.699219 219.648438 L 221.699219 218.34375 L 238.589844 218.34375 C 243.1875 218.34375 246.484375 218.945312 249.183594 220.144531 C 255.980469 223.246094 259.078125 229.9375 259.078125 236.535156 C 259.078125 242.9375 256.679688 248.925781 250.582031 252.125 C 247.785156 253.632812 243.886719 254.328125 238.792969 254.328125 L 221.699219 254.328125 "/>
<path style=" stroke:none;fill-rule:nonzero;fill:rgb(100%,100%,100%);fill-opacity:1;" d="M 76.195312 253.023438 L 76.195312 254.328125 L 63.503906 254.328125 L 63.503906 253.023438 L 66.695312 252.226562 C 67.902344 251.917969 68.695312 251.53125 69.496094 250.632812 L 80.492188 236.839844 L 69.496094 222.246094 C 68.796875 221.242188 67.902344 220.746094 66.796875 220.445312 L 63.796875 219.648438 L 63.796875 218.34375 L 79.589844 218.34375 L 79.589844 219.648438 L 76.195312 220.34375 C 74.992188 220.546875 75.292969 221.042969 75.890625 221.847656 L 83.984375 233.441406 L 84.183594 233.441406 L 92.480469 221.847656 C 93.082031 221.042969 93.28125 220.746094 92.183594 220.445312 L 88.984375 219.648438 L 88.984375 218.34375 L 101.675781 218.34375 L 101.675781 219.648438 L 98.476562 220.445312 C 97.28125 220.746094 96.480469 221.144531 95.679688 222.042969 L 85.285156 235.144531 L 96.878906 250.429688 C 97.582031 251.429688 98.476562 251.917969 99.578125 252.226562 L 102.578125 253.023438 L 102.578125 254.328125 L 86.785156 254.328125 L 86.785156 253.023438 L 90.183594 252.328125 C 91.382812 252.125 91.183594 251.734375 90.582031 250.917969 L 81.789062 238.53125 L 81.589844 238.53125 L 72.695312 250.835938 C 72.09375 251.632812 71.894531 251.917969 72.992188 252.226562 L 76.195312 253.023438 "/>
<path style=" stroke:none;fill-rule:nonzero;fill:rgb(100%,100%,100%);fill-opacity:1;" d="M 38.335938 201.414062 C 37.34375 202.40625 35.851562 203.070312 33.773438 203.070312 C 31.960938 203.070312 30.277344 202.5 29.140625 201.363281 C 27.589844 199.808594 27.660156 197.832031 27.660156 195.714844 L 27.660156 185.707031 L 29.699219 185.707031 L 29.699219 196.457031 C 29.699219 197.816406 29.660156 199.140625 30.710938 200.195312 C 31.4375 200.921875 32.558594 201.316406 33.851562 201.316406 C 35.113281 201.316406 36.125 200.878906 36.753906 200.246094 C 37.925781 199.078125 37.851562 197.804688 37.851562 194.726562 L 37.851562 185.707031 L 39.859375 185.707031 L 39.859375 194.195312 C 39.859375 197.421875 39.992188 199.757812 38.335938 201.414062 "/>
<path style=" stroke:none;fill-rule:nonzero;fill:rgb(100%,100%,100%);fill-opacity:1;" d="M 56.449219 202.75 L 48.238281 188.777344 L 48.289062 202.75 L 46.414062 202.75 L 46.414062 185.707031 L 48.503906 185.707031 L 56.746094 199.753906 L 56.695312 185.707031 L 58.570312 185.707031 L 58.570312 202.75 L 56.449219 202.75 "/>
<path style=" stroke:none;fill-rule:nonzero;fill:rgb(100%,100%,100%);fill-opacity:1;" d="M 65.675781 202.746094 L 65.675781 185.707031 L 67.726562 185.707031 L 67.726562 202.746094 L 65.675781 202.746094 "/>
<path style=" stroke:none;fill-rule:nonzero;fill:rgb(100%,100%,100%);fill-opacity:1;" d="M 80.476562 202.746094 L 78.128906 202.746094 L 72.253906 185.707031 L 74.390625 185.707031 L 79.363281 200.753906 L 84.480469 185.707031 L 86.464844 185.707031 L 80.476562 202.746094 "/>
<path style=" stroke:none;fill-rule:nonzero;fill:rgb(100%,100%,100%);fill-opacity:1;" d="M 91.105469 202.746094 L 91.105469 185.707031 L 100.371094 185.707031 L 100.371094 187.40625 L 93.113281 187.40625 L 93.113281 193.03125 L 99.925781 193.03125 L 99.925781 194.6875 L 93.113281 194.6875 L 93.113281 200.996094 L 100.574219 200.996094 L 100.574219 202.746094 L 91.105469 202.746094 "/>
<path style=" stroke:none;fill-rule:nonzero;fill:rgb(100%,100%,100%);fill-opacity:1;" d="M 115.390625 202.746094 L 113.433594 198.332031 C 112.222656 195.613281 111.667969 195.335938 109.195312 195.335938 L 108.007812 195.335938 L 108.007812 202.746094 L 106 202.746094 L 106 185.707031 L 109.675781 185.707031 C 111.949219 185.707031 113.664062 185.691406 115.007812 187.03125 C 115.859375 187.882812 116.335938 189.019531 116.335938 190.441406 C 116.335938 191.625 115.992188 192.609375 115.277344 193.367188 C 114.664062 194.023438 113.648438 194.59375 112.542969 194.714844 C 113.144531 194.746094 113.640625 195.070312 113.960938 195.394531 C 114.425781 195.855469 114.761719 196.558594 115.261719 197.671875 L 117.527344 202.746094 Z M 113.53125 188.269531 C 112.554688 187.292969 111.285156 187.339844 109.894531 187.339844 L 108.007812 187.339844 L 108.007812 193.703125 L 108.6875 193.703125 C 110.40625 193.703125 112.257812 193.792969 113.429688 192.621094 C 113.992188 192.058594 114.308594 191.265625 114.308594 190.402344 C 114.308594 189.441406 113.933594 188.671875 113.53125 188.269531 "/>
<path style=" stroke:none;fill-rule:nonzero;fill:rgb(100%,100%,100%);fill-opacity:1;" d="M 137.433594 202.746094 L 137.433594 185.707031 L 139.484375 185.707031 L 139.484375 202.746094 L 137.433594 202.746094 "/>
<path style=" stroke:none;fill-rule:nonzero;fill:rgb(100%,100%,100%);fill-opacity:1;" d="M 151.1875 187.40625 L 151.1875 202.746094 L 149.136719 202.746094 L 149.136719 187.40625 L 144.074219 187.40625 L 144.074219 185.707031 L 156.238281 185.707031 L 156.238281 187.40625 L 151.1875 187.40625 "/>
<path style=" stroke:none;fill-rule:nonzero;fill:rgb(100%,100%,100%);fill-opacity:1;" d="M 166.046875 196.011719 L 166.046875 202.746094 L 164.023438 202.746094 L 164.023438 196.011719 L 158.613281 185.707031 L 160.957031 185.707031 L 165.15625 193.699219 L 169.238281 185.707031 L 171.457031 185.707031 L 166.046875 196.011719 "/>
<path style=" stroke:none;fill-rule:nonzero;fill:rgb(100%,100%,100%);fill-opacity:1;" d="M 190.582031 203.070312 C 186.171875 203.070312 182.945312 199.425781 182.945312 194.304688 C 182.945312 189.039062 186.136719 185.382812 190.738281 185.382812 C 195.203125 185.382812 198.351562 189.003906 198.351562 194.148438 C 198.351562 199.421875 195.195312 203.070312 190.582031 203.070312 Z M 190.578125 187.125 C 187.234375 187.125 185.066406 189.945312 185.066406 194.195312 C 185.066406 198.429688 187.480469 201.316406 190.683594 201.316406 C 194.246094 201.316406 196.230469 198.285156 196.230469 194.0625 C 196.230469 189.902344 193.890625 187.125 190.578125 187.125 "/>
<path style=" stroke:none;fill-rule:nonzero;fill:rgb(100%,100%,100%);fill-opacity:1;" d="M 205.988281 187.40625 L 205.988281 193.03125 L 212.578125 193.03125 L 212.578125 194.6875 L 205.988281 194.6875 L 205.988281 202.746094 L 203.957031 202.746094 L 203.957031 185.707031 L 213.007812 185.707031 L 213.007812 187.40625 L 205.988281 187.40625 "/>
<path style=" stroke:none;fill-rule:nonzero;fill:rgb(100%,100%,100%);fill-opacity:1;" d="M 121.65625 189.863281 C 121.65625 187.246094 123.765625 185.378906 126.84375 185.378906 C 129.960938 185.378906 131.453125 186.988281 131.605469 187.15625 L 130.605469 188.367188 C 130.226562 188.074219 128.859375 187.070312 126.976562 187.070312 C 124.804688 187.070312 123.597656 188.207031 123.597656 189.746094 C 123.597656 190.496094 123.90625 191.03125 124.398438 191.472656 C 124.980469 191.996094 125.835938 192.386719 126.753906 192.808594 C 127.894531 193.335938 129.460938 193.925781 130.511719 195.015625 C 131.238281 195.765625 131.785156 196.746094 131.785156 198.089844 C 131.785156 200.921875 129.820312 203.082031 126.28125 203.082031 C 123.265625 203.082031 121.363281 201.421875 121.183594 201.253906 L 122.125 199.871094 C 122.609375 200.230469 124.5 201.351562 126.230469 201.351562 C 128.796875 201.351562 129.753906 199.949219 129.753906 198.253906 C 129.753906 197.46875 129.398438 196.835938 128.867188 196.328125 C 128.070312 195.558594 126.867188 195.046875 125.714844 194.519531 C 124.570312 193.996094 123.46875 193.449219 122.6875 192.628906 C 122.171875 192.085938 121.65625 191.203125 121.65625 189.863281 "/>
<path style=" stroke:none;fill-rule:nonzero;fill:rgb(100%,100%,100%);fill-opacity:1;" d="M 199.949219 70.402344 C 199.949219 68.261719 199.226562 66.53125 197.65625 65.609375 C 196.675781 65.035156 195.34375 64.847656 193.703125 64.847656 L 181.769531 64.84375 L 181.769531 88.941406 L 194.757812 88.941406 C 197.75 88.941406 199.511719 89.613281 199.664062 92.300781 L 199.953125 92.300781 L 199.949219 70.402344 "/>
<path style=" stroke:none;fill-rule:nonzero;fill:rgb(100%,100%,100%);fill-opacity:1;" d="M 201.617188 70.402344 C 201.617188 68.261719 202.34375 66.53125 203.910156 65.609375 C 204.894531 65.035156 206.222656 64.847656 207.863281 64.847656 L 219.882812 64.84375 L 219.882812 88.941406 L 206.808594 88.941406 C 203.816406 88.941406 202.054688 89.613281 201.902344 92.300781 L 201.617188 92.300781 L 201.617188 70.402344 "/>
<path style=" stroke:none;fill-rule:nonzero;fill:rgb(100%,100%,100%);fill-opacity:1;" d="M 222.375 66.625 C 222.375 66.625 222.375 90.535156 222.375 92.097656 C 220.855469 92.097656 203.925781 92.097656 203.925781 92.097656 L 203.714844 92.617188 C 203.390625 93.414062 202.816406 94.148438 200.800781 94.148438 C 198.789062 94.148438 198.214844 93.414062 197.894531 92.617188 L 197.683594 92.097656 C 197.683594 92.097656 180.78125 92.097656 179.261719 92.097656 C 179.261719 90.535156 179.261719 66.625 179.261719 66.625 L 177.59375 66.625 L 177.59375 67.402344 L 175.996094 66.910156 C 175.8125 66.28125 175.238281 65.820312 174.546875 65.820312 C 173.710938 65.820312 173.03125 66.5 173.03125 67.335938 C 173.03125 68.175781 173.710938 68.855469 174.546875 68.855469 C 174.914062 68.855469 175.246094 68.71875 175.507812 68.503906 L 177.59375 69.144531 L 177.59375 71.191406 L 176.027344 70.910156 C 175.796875 70.371094 175.257812 69.988281 174.632812 69.988281 C 173.796875 69.988281 173.113281 70.667969 173.113281 71.507812 C 173.113281 72.347656 173.796875 73.023438 174.632812 73.023438 C 175.0625 73.023438 175.453125 72.839844 175.730469 72.550781 L 177.59375 72.886719 L 177.59375 74.972656 L 175.957031 74.902344 C 175.691406 74.460938 175.210938 74.160156 174.660156 74.160156 C 173.824219 74.160156 173.140625 74.839844 173.140625 75.675781 C 173.140625 76.515625 173.824219 77.195312 174.660156 77.195312 C 175.164062 77.195312 175.609375 76.945312 175.886719 76.566406 L 177.59375 76.640625 L 177.59375 78.910156 L 175.921875 78.96875 C 175.644531 78.585938 175.195312 78.328125 174.6875 78.328125 C 173.851562 78.328125 173.167969 79.011719 173.167969 79.847656 C 173.167969 80.6875 173.851562 81.363281 174.6875 81.363281 C 175.234375 81.363281 175.710938 81.070312 175.980469 80.636719 L 177.59375 80.578125 L 177.59375 82.667969 L 175.761719 82.980469 C 175.484375 82.6875 175.09375 82.5 174.660156 82.5 C 173.824219 82.5 173.140625 83.179688 173.140625 84.019531 C 173.140625 84.855469 173.824219 85.535156 174.660156 85.535156 C 175.28125 85.535156 175.816406 85.160156 176.050781 84.621094 L 177.59375 84.359375 L 177.59375 86.410156 L 175.59375 87.023438 C 175.328125 86.804688 174.996094 86.671875 174.632812 86.671875 C 173.796875 86.671875 173.113281 87.351562 173.113281 88.1875 C 173.113281 89.027344 173.796875 89.703125 174.632812 89.703125 C 175.320312 89.703125 175.894531 89.242188 176.082031 88.613281 L 177.59375 88.152344 L 177.59375 90.136719 L 175.382812 91.09375 C 175.144531 90.933594 174.855469 90.839844 174.546875 90.839844 C 173.710938 90.839844 173.03125 91.519531 173.03125 92.359375 C 173.03125 93.195312 173.710938 93.875 174.546875 93.875 C 175.296875 93.875 175.914062 93.335938 176.039062 92.621094 L 177.59375 91.949219 L 177.59375 93.765625 C 177.59375 93.765625 195.773438 93.765625 196.65625 93.765625 C 197.429688 95.117188 198.769531 95.816406 200.800781 95.816406 C 202.835938 95.816406 204.175781 95.117188 204.949219 93.765625 C 205.832031 93.765625 224.042969 93.765625 224.042969 93.765625 L 224.042969 66.625 L 222.375 66.625 "/>
<path style=" stroke:none;fill-rule:nonzero;fill:rgb(100%,100%,100%);fill-opacity:1;" d="M 188.261719 58.132812 C 184.410156 58.132812 181.289062 58.730469 181.289062 59.46875 C 181.289062 60.210938 184.410156 60.808594 188.261719 60.808594 C 192.113281 60.808594 195.238281 60.210938 195.238281 59.46875 C 195.238281 58.730469 192.113281 58.132812 188.261719 58.132812 "/>
<path style=" stroke:none;fill-rule:nonzero;fill:rgb(100%,100%,100%);fill-opacity:1;" d="M 197.867188 49.773438 L 193.839844 52.605469 L 193.804688 52.890625 L 194.761719 53.320312 C 194.953125 53.414062 194.953125 53.566406 194.859375 53.660156 L 192.328125 55.796875 L 192.085938 55.773438 L 190.296875 53.132812 C 190.171875 52.960938 190.21875 52.789062 190.433594 52.753906 L 191.636719 52.558594 L 191.636719 52.253906 L 188.519531 47.851562 L 188.003906 47.851562 L 184.886719 52.253906 L 184.886719 52.558594 L 186.089844 52.753906 C 186.304688 52.789062 186.351562 52.960938 186.226562 53.132812 L 184.433594 55.773438 L 184.195312 55.796875 L 181.832031 53.660156 C 181.738281 53.566406 181.738281 53.414062 181.925781 53.320312 L 182.886719 52.890625 L 182.851562 52.605469 L 178.65625 49.773438 L 178.316406 49.90625 L 180.777344 57.433594 C 182.027344 56.871094 184.898438 56.476562 188.261719 56.460938 C 191.625 56.476562 194.496094 56.871094 195.746094 57.433594 L 198.207031 49.90625 L 197.867188 49.773438 "/>
<path style=" stroke:none;fill-rule:nonzero;fill:rgb(100%,100%,100%);fill-opacity:1;" d="M 200.773438 108.589844 C 196.921875 108.589844 193.796875 109.1875 193.796875 109.925781 C 193.796875 110.664062 196.921875 111.265625 200.773438 111.265625 C 204.625 111.265625 207.746094 110.664062 207.746094 109.925781 C 207.746094 109.1875 204.625 108.589844 200.773438 108.589844 "/>
<path style=" stroke:none;fill-rule:nonzero;fill:rgb(100%,100%,100%);fill-opacity:1;" d="M 210.378906 100.230469 L 206.351562 103.0625 L 206.316406 103.347656 L 207.273438 103.777344 C 207.460938 103.871094 207.464844 104.023438 207.367188 104.117188 L 204.839844 106.253906 L 204.597656 106.230469 L 202.804688 103.589844 C 202.683594 103.417969 202.726562 103.246094 202.945312 103.210938 L 204.144531 103.015625 L 204.144531 102.710938 L 201.027344 98.304688 L 200.515625 98.304688 L 197.398438 102.710938 L 197.398438 103.015625 L 198.601562 103.210938 C 198.816406 103.246094 198.863281 103.417969 198.738281 103.589844 L 196.945312 106.230469 L 196.707031 106.253906 L 194.34375 104.117188 C 194.246094 104.023438 194.25 103.871094 194.4375 103.777344 L 195.394531 103.347656 L 195.359375 103.0625 L 191.167969 100.230469 L 190.828125 100.363281 L 193.289062 107.890625 C 194.539062 107.328125 197.410156 106.933594 200.773438 106.914062 C 204.132812 106.933594 207.003906 107.328125 208.253906 107.890625 L 210.71875 100.363281 L 210.378906 100.230469 "/>
<path style=" stroke:none;fill-rule:nonzero;fill:rgb(100%,100%,100%);fill-opacity:1;" d="M 213.253906 58.132812 C 209.402344 58.132812 206.277344 58.730469 206.277344 59.46875 C 206.277344 60.210938 209.402344 60.808594 213.253906 60.808594 C 217.105469 60.808594 220.226562 60.210938 220.226562 59.46875 C 220.226562 58.730469 217.105469 58.132812 213.253906 58.132812 "/>
<path style=" stroke:none;fill-rule:nonzero;fill:rgb(100%,100%,100%);fill-opacity:1;" d="M 222.855469 49.773438 L 218.832031 52.605469 L 218.796875 52.890625 L 219.753906 53.320312 C 219.941406 53.414062 219.945312 53.566406 219.847656 53.660156 L 217.316406 55.796875 L 217.078125 55.773438 L 215.285156 53.132812 C 215.164062 52.960938 215.207031 52.789062 215.421875 52.753906 L 216.625 52.558594 L 216.625 52.253906 L 213.507812 47.851562 L 212.996094 47.851562 L 209.878906 52.253906 L 209.878906 52.558594 L 211.082031 52.753906 C 211.296875 52.789062 211.339844 52.960938 211.21875 53.132812 L 209.425781 55.773438 L 209.183594 55.796875 L 206.824219 53.632812 C 206.726562 53.539062 206.726562 53.386719 206.917969 53.292969 L 207.875 52.890625 L 207.839844 52.605469 L 203.644531 49.773438 L 203.304688 49.90625 L 205.769531 57.433594 C 207.019531 56.871094 209.890625 56.476562 213.25 56.460938 C 216.613281 56.476562 219.484375 56.871094 220.734375 57.433594 L 223.195312 49.90625 L 222.855469 49.773438 "/>
<path style=" stroke:none;fill-rule:nonzero;fill:rgb(5.783081%,12.275696%,27.894592%);fill-opacity:1;" d="M 184.589844 71.277344 C 184.589844 71.746094 184.707031 71.839844 184.960938 71.839844 C 185.421875 71.839844 185.882812 71.335938 185.882812 70.394531 C 185.882812 69.253906 185.304688 68.933594 184.851562 68.933594 C 184.730469 68.933594 184.660156 68.949219 184.621094 68.972656 C 184.597656 68.980469 184.589844 69.105469 184.589844 69.234375 Z M 184.851562 68.667969 C 185.503906 68.667969 186.046875 68.796875 186.402344 69.140625 C 186.652344 69.378906 186.859375 69.773438 186.859375 70.230469 C 186.859375 71.550781 185.855469 72.121094 184.628906 72.121094 L 183.257812 72.121094 L 183.257812 71.914062 C 183.644531 71.882812 183.6875 71.84375 183.6875 71.269531 L 183.6875 69.515625 C 183.6875 68.945312 183.644531 68.90625 183.300781 68.875 L 183.300781 68.667969 L 184.851562 68.667969 "/>
<path style=" stroke:none;fill-rule:nonzero;fill:rgb(5.783081%,12.275696%,27.894592%);fill-opacity:1;" d="M 188.308594 70.261719 C 188.308594 71.222656 188.671875 71.925781 189.191406 71.925781 C 189.648438 71.925781 189.898438 71.484375 189.898438 70.519531 C 189.898438 69.453125 189.515625 68.863281 189.058594 68.863281 C 188.648438 68.863281 188.308594 69.332031 188.308594 70.261719 Z M 190.886719 70.351562 C 190.886719 71.488281 190.109375 72.199219 189.089844 72.199219 C 188.019531 72.199219 187.320312 71.417969 187.320312 70.441406 C 187.320312 69.582031 187.894531 68.589844 189.164062 68.589844 C 190.136719 68.589844 190.886719 69.300781 190.886719 70.351562 "/>
<path style=" stroke:none;fill-rule:nonzero;fill:rgb(5.783081%,12.275696%,27.894592%);fill-opacity:1;" d="M 195.578125 68.667969 L 195.578125 68.875 C 195.171875 68.910156 195.152344 68.933594 195.167969 69.492188 L 195.21875 71.269531 C 195.234375 71.859375 195.246094 71.875 195.628906 71.914062 L 195.628906 72.121094 L 193.964844 72.121094 L 193.964844 71.914062 C 194.363281 71.875 194.382812 71.859375 194.375 71.269531 L 194.359375 69.398438 L 194.335938 69.398438 L 193.3125 72.0625 L 193.027344 72.0625 L 192.054688 69.585938 L 192.042969 69.585938 L 192.007812 70.765625 C 191.988281 71.222656 191.996094 71.476562 192.015625 71.640625 C 192.039062 71.839844 192.15625 71.886719 192.5 71.914062 L 192.5 72.121094 L 191.1875 72.121094 L 191.1875 71.914062 C 191.445312 71.890625 191.542969 71.839844 191.574219 71.640625 C 191.601562 71.476562 191.632812 71.195312 191.660156 70.710938 L 191.71875 69.640625 C 191.757812 68.972656 191.714844 68.910156 191.292969 68.875 L 191.292969 68.667969 L 192.542969 68.667969 L 193.472656 70.769531 L 194.285156 68.667969 L 195.578125 68.667969 "/>
<path style=" stroke:none;fill-rule:nonzero;fill:rgb(5.783081%,12.275696%,27.894592%);fill-opacity:1;" d="M 197.300781 71.269531 C 197.300781 71.84375 197.34375 71.882812 197.710938 71.914062 L 197.710938 72.121094 L 195.988281 72.121094 L 195.988281 71.914062 C 196.355469 71.882812 196.398438 71.84375 196.398438 71.269531 L 196.398438 69.515625 C 196.398438 68.945312 196.355469 68.90625 195.988281 68.875 L 195.988281 68.667969 L 197.710938 68.667969 L 197.710938 68.875 C 197.34375 68.90625 197.300781 68.945312 197.300781 69.515625 L 197.300781 71.269531 "/>
<path style=" stroke:none;fill-rule:nonzero;fill:rgb(5.783081%,12.275696%,27.894592%);fill-opacity:1;" d="M 188.746094 78.53125 L 188.289062 78.53125 L 186.324219 76.023438 L 186.3125 76.023438 L 186.3125 77 C 186.3125 77.558594 186.335938 77.851562 186.355469 78.015625 C 186.382812 78.203125 186.527344 78.269531 186.878906 78.285156 L 186.878906 78.492188 L 185.554688 78.492188 L 185.554688 78.285156 C 185.789062 78.277344 185.925781 78.203125 185.953125 78.015625 C 185.972656 77.851562 185.996094 77.558594 185.996094 77 L 185.996094 76.023438 C 185.996094 75.632812 185.984375 75.5625 185.878906 75.414062 C 185.800781 75.300781 185.667969 75.265625 185.476562 75.246094 L 185.476562 75.039062 L 186.648438 75.039062 L 188.417969 77.246094 L 188.429688 77.246094 L 188.429688 76.535156 C 188.429688 75.976562 188.40625 75.683594 188.386719 75.519531 C 188.359375 75.335938 188.214844 75.265625 187.867188 75.246094 L 187.867188 75.039062 L 189.21875 75.039062 L 189.21875 75.246094 C 188.953125 75.257812 188.816406 75.335938 188.789062 75.519531 C 188.769531 75.683594 188.746094 75.976562 188.746094 76.535156 L 188.746094 78.53125 "/>
<path style=" stroke:none;fill-rule:nonzero;fill:rgb(5.783081%,12.275696%,27.894592%);fill-opacity:1;" d="M 190.898438 78.53125 C 190.53125 77.574219 190.03125 76.261719 189.839844 75.765625 C 189.667969 75.308594 189.558594 75.28125 189.304688 75.246094 L 189.304688 75.039062 L 191.019531 75.039062 L 191.019531 75.246094 L 190.839844 75.269531 C 190.644531 75.289062 190.644531 75.339844 190.703125 75.523438 C 190.796875 75.820312 191.21875 76.867188 191.414062 77.390625 C 191.578125 76.9375 191.917969 75.921875 192.003906 75.675781 C 192.113281 75.347656 192.082031 75.289062 191.84375 75.265625 L 191.683594 75.246094 L 191.683594 75.039062 L 192.96875 75.039062 L 192.96875 75.246094 C 192.667969 75.285156 192.59375 75.3125 192.386719 75.796875 C 192.355469 75.871094 191.707031 77.449219 191.308594 78.53125 L 190.898438 78.53125 "/>
<path style=" stroke:none;fill-rule:nonzero;fill:rgb(5.783081%,12.275696%,27.894592%);fill-opacity:1;" d="M 193.292969 77.398438 C 193.40625 77.707031 193.71875 78.296875 194.238281 78.296875 C 194.515625 78.296875 194.726562 78.117188 194.726562 77.769531 C 194.726562 77.457031 194.523438 77.28125 194.195312 77.132812 L 194.117188 77.097656 C 193.683594 76.894531 193.1875 76.617188 193.1875 76.050781 C 193.1875 75.449219 193.625 74.960938 194.457031 74.960938 C 194.621094 74.960938 194.792969 74.980469 194.945312 75.027344 C 195.066406 75.058594 195.152344 75.078125 195.222656 75.101562 C 195.242188 75.308594 195.28125 75.566406 195.339844 75.929688 L 195.105469 75.964844 C 194.988281 75.613281 194.804688 75.238281 194.382812 75.238281 C 194.113281 75.238281 193.921875 75.445312 193.921875 75.699219 C 193.921875 75.964844 194.128906 76.121094 194.46875 76.273438 L 194.585938 76.328125 C 195.074219 76.550781 195.492188 76.820312 195.492188 77.441406 C 195.492188 78.097656 194.96875 78.574219 194.144531 78.574219 C 193.933594 78.574219 193.714844 78.53125 193.570312 78.484375 C 193.410156 78.429688 193.300781 78.386719 193.234375 78.355469 C 193.191406 78.109375 193.125 77.824219 193.058594 77.46875 L 193.292969 77.398438 "/>
<path style=" stroke:none;fill-rule:nonzero;fill:rgb(5.783081%,12.275696%,27.894592%);fill-opacity:1;" d="M 186.386719 84.019531 C 186.386719 84.589844 186.425781 84.628906 186.792969 84.660156 L 186.792969 84.867188 L 185.074219 84.867188 L 185.074219 84.660156 C 185.4375 84.628906 185.480469 84.589844 185.480469 84.019531 L 185.480469 82.265625 C 185.480469 81.691406 185.4375 81.652344 185.074219 81.621094 L 185.074219 81.414062 L 186.792969 81.414062 L 186.792969 81.621094 C 186.425781 81.652344 186.386719 81.691406 186.386719 82.265625 L 186.386719 84.019531 "/>
<path style=" stroke:none;fill-rule:nonzero;fill:rgb(5.783081%,12.275696%,27.894592%);fill-opacity:1;" d="M 188.488281 84.085938 C 188.488281 84.363281 188.5 84.496094 188.59375 84.542969 C 188.679688 84.585938 188.800781 84.589844 188.964844 84.589844 C 189.136719 84.589844 189.363281 84.574219 189.476562 84.4375 C 189.5625 84.335938 189.652344 84.191406 189.738281 83.910156 L 189.964844 83.949219 C 189.933594 84.152344 189.820312 84.703125 189.773438 84.867188 L 187.140625 84.867188 L 187.140625 84.660156 C 187.542969 84.628906 187.585938 84.589844 187.585938 84.019531 L 187.585938 82.265625 C 187.585938 81.691406 187.542969 81.652344 187.1875 81.621094 L 187.1875 81.414062 L 188.914062 81.414062 L 188.914062 81.621094 C 188.53125 81.652344 188.488281 81.691406 188.488281 82.265625 L 188.488281 84.085938 "/>
<path style=" stroke:none;fill-rule:nonzero;fill:rgb(5.783081%,12.275696%,27.894592%);fill-opacity:1;" d="M 191.453125 84.085938 C 191.453125 84.363281 191.464844 84.496094 191.558594 84.542969 C 191.644531 84.585938 191.765625 84.589844 191.929688 84.589844 C 192.101562 84.589844 192.328125 84.574219 192.441406 84.4375 C 192.523438 84.335938 192.613281 84.191406 192.699219 83.910156 L 192.929688 83.949219 C 192.898438 84.152344 192.785156 84.703125 192.738281 84.867188 L 190.101562 84.867188 L 190.101562 84.660156 C 190.507812 84.628906 190.550781 84.589844 190.550781 84.019531 L 190.550781 82.265625 C 190.550781 81.691406 190.507812 81.652344 190.152344 81.621094 L 190.152344 81.414062 L 191.878906 81.414062 L 191.878906 81.621094 C 191.496094 81.652344 191.453125 81.691406 191.453125 82.265625 L 191.453125 84.085938 "/>
<path style=" stroke:none;fill-rule:nonzero;fill:rgb(5.783081%,12.275696%,27.894592%);fill-opacity:1;" d="M 193.992188 84.90625 C 193.625 83.949219 193.125 82.636719 192.933594 82.136719 C 192.757812 81.679688 192.652344 81.652344 192.398438 81.621094 L 192.398438 81.414062 L 194.113281 81.414062 L 194.113281 81.621094 L 193.933594 81.644531 C 193.734375 81.664062 193.734375 81.710938 193.792969 81.898438 C 193.890625 82.195312 194.308594 83.242188 194.507812 83.761719 C 194.671875 83.3125 195.011719 82.296875 195.097656 82.046875 C 195.207031 81.722656 195.175781 81.664062 194.9375 81.640625 L 194.777344 81.621094 L 194.777344 81.414062 L 196.0625 81.414062 L 196.0625 81.621094 C 195.757812 81.660156 195.683594 81.6875 195.476562 82.171875 C 195.445312 82.242188 194.796875 83.820312 194.398438 84.90625 L 193.992188 84.90625 "/>
<path style=" stroke:none;fill-rule:nonzero;fill:rgb(5.783081%,12.275696%,27.894592%);fill-opacity:1;" d="M 208.257812 68.667969 L 208.257812 68.875 C 207.855469 68.910156 207.832031 68.933594 207.847656 69.492188 L 207.902344 71.269531 C 207.917969 71.859375 207.925781 71.875 208.308594 71.914062 L 208.308594 72.121094 L 206.648438 72.121094 L 206.648438 71.914062 C 207.046875 71.875 207.0625 71.859375 207.058594 71.269531 L 207.042969 69.398438 L 207.019531 69.398438 L 205.996094 72.0625 L 205.707031 72.0625 L 204.734375 69.585938 L 204.726562 69.585938 L 204.6875 70.765625 C 204.671875 71.222656 204.675781 71.476562 204.699219 71.640625 C 204.71875 71.839844 204.835938 71.886719 205.183594 71.914062 L 205.183594 72.121094 L 203.871094 72.121094 L 203.871094 71.914062 C 204.125 71.890625 204.226562 71.839844 204.257812 71.640625 C 204.285156 71.476562 204.316406 71.195312 204.34375 70.710938 L 204.402344 69.640625 C 204.4375 68.972656 204.394531 68.910156 203.976562 68.875 L 203.976562 68.667969 L 205.222656 68.667969 L 206.152344 70.769531 L 206.96875 68.667969 L 208.257812 68.667969 "/>
<path style=" stroke:none;fill-rule:nonzero;fill:rgb(5.783081%,12.275696%,27.894592%);fill-opacity:1;" d="M 209.984375 71.269531 C 209.984375 71.84375 210.027344 71.882812 210.390625 71.914062 L 210.390625 72.121094 L 208.671875 72.121094 L 208.671875 71.914062 C 209.039062 71.882812 209.078125 71.84375 209.078125 71.269531 L 209.078125 69.515625 C 209.078125 68.945312 209.039062 68.90625 208.671875 68.875 L 208.671875 68.667969 L 210.390625 68.667969 L 210.390625 68.875 C 210.027344 68.90625 209.984375 68.945312 209.984375 69.515625 L 209.984375 71.269531 "/>
<path style=" stroke:none;fill-rule:nonzero;fill:rgb(5.783081%,12.275696%,27.894592%);fill-opacity:1;" d="M 213.933594 72.15625 L 213.476562 72.15625 L 211.511719 69.648438 L 211.503906 69.648438 L 211.503906 70.628906 C 211.503906 71.183594 211.523438 71.476562 211.546875 71.640625 C 211.570312 71.828125 211.714844 71.898438 212.066406 71.914062 L 212.066406 72.121094 L 210.742188 72.121094 L 210.742188 71.914062 C 210.976562 71.902344 211.113281 71.828125 211.140625 71.640625 C 211.164062 71.476562 211.183594 71.183594 211.183594 70.628906 L 211.183594 69.648438 C 211.183594 69.257812 211.171875 69.1875 211.066406 69.039062 C 210.988281 68.929688 210.855469 68.890625 210.664062 68.875 L 210.664062 68.667969 L 211.835938 68.667969 L 213.605469 70.871094 L 213.617188 70.871094 L 213.617188 70.160156 C 213.617188 69.601562 213.59375 69.3125 213.574219 69.144531 C 213.546875 68.960938 213.402344 68.890625 213.054688 68.875 L 213.054688 68.667969 L 214.40625 68.667969 L 214.40625 68.875 C 214.144531 68.886719 214.003906 68.960938 213.976562 69.144531 C 213.957031 69.3125 213.933594 69.601562 213.933594 70.160156 L 213.933594 72.15625 "/>
<path style=" stroke:none;fill-rule:nonzero;fill:rgb(5.783081%,12.275696%,27.894592%);fill-opacity:1;" d="M 215.480469 70.761719 L 216.160156 70.761719 L 215.824219 69.746094 L 215.808594 69.746094 Z M 216.15625 71.914062 L 216.316406 71.890625 C 216.511719 71.867188 216.523438 71.8125 216.453125 71.621094 L 216.261719 71.078125 L 215.390625 71.078125 L 215.230469 71.589844 C 215.160156 71.816406 215.160156 71.871094 215.40625 71.898438 L 215.558594 71.914062 L 215.558594 72.121094 L 214.324219 72.121094 L 214.324219 71.914062 C 214.59375 71.875 214.671875 71.855469 214.847656 71.40625 L 215.910156 68.660156 L 216.277344 68.589844 L 216.636719 69.59375 C 216.867188 70.222656 217.09375 70.851562 217.296875 71.394531 C 217.46875 71.855469 217.5625 71.882812 217.824219 71.914062 L 217.824219 72.121094 L 216.15625 72.121094 L 216.15625 71.914062 "/>
<path style=" stroke:none;fill-rule:nonzero;fill:rgb(5.783081%,12.275696%,27.894592%);fill-opacity:1;" d="M 208.214844 77.644531 C 208.214844 78.21875 208.257812 78.253906 208.703125 78.285156 L 208.703125 78.492188 L 206.84375 78.492188 L 206.84375 78.285156 C 207.269531 78.253906 207.3125 78.21875 207.3125 77.644531 L 207.3125 75.316406 L 207.222656 75.316406 C 206.867188 75.316406 206.722656 75.382812 206.636719 75.476562 C 206.574219 75.558594 206.511719 75.695312 206.441406 75.992188 L 206.21875 75.992188 C 206.238281 75.546875 206.269531 75.179688 206.28125 74.910156 L 206.445312 74.910156 C 206.527344 75.03125 206.578125 75.039062 206.722656 75.039062 L 208.839844 75.039062 C 208.980469 75.039062 209.007812 75.007812 209.089844 74.910156 L 209.257812 74.910156 C 209.261719 75.132812 209.289062 75.582031 209.3125 75.976562 L 209.082031 75.992188 C 209 75.675781 208.941406 75.535156 208.863281 75.445312 C 208.773438 75.347656 208.597656 75.316406 208.34375 75.316406 L 208.214844 75.316406 L 208.214844 77.644531 "/>
<path style=" stroke:none;fill-rule:nonzero;fill:rgb(5.783081%,12.275696%,27.894592%);fill-opacity:1;" d="M 210.996094 77.644531 C 210.996094 78.21875 211.039062 78.253906 211.40625 78.285156 L 211.40625 78.492188 L 209.683594 78.492188 L 209.683594 78.285156 C 210.050781 78.253906 210.09375 78.21875 210.09375 77.644531 L 210.09375 75.890625 C 210.09375 75.316406 210.050781 75.28125 209.683594 75.246094 L 209.683594 75.039062 L 211.40625 75.039062 L 211.40625 75.246094 C 211.039062 75.28125 210.996094 75.316406 210.996094 75.890625 L 210.996094 77.644531 "/>
<path style=" stroke:none;fill-rule:nonzero;fill:rgb(5.783081%,12.275696%,27.894592%);fill-opacity:1;" d="M 212.835938 76.632812 C 212.835938 77.597656 213.199219 78.296875 213.71875 78.296875 C 214.175781 78.296875 214.425781 77.855469 214.425781 76.894531 C 214.425781 75.828125 214.042969 75.238281 213.585938 75.238281 C 213.175781 75.238281 212.835938 75.703125 212.835938 76.632812 Z M 215.414062 76.726562 C 215.414062 77.863281 214.636719 78.574219 213.617188 78.574219 C 212.546875 78.574219 211.847656 77.792969 211.847656 76.816406 C 211.847656 75.953125 212.421875 74.960938 213.691406 74.960938 C 214.664062 74.960938 215.414062 75.675781 215.414062 76.726562 "/>
<path style=" stroke:none;fill-rule:nonzero;fill:rgb(5.783081%,12.275696%,27.894592%);fill-opacity:1;" d="M 209.785156 81.414062 L 209.785156 81.621094 C 209.378906 81.660156 209.359375 81.679688 209.375 82.238281 L 209.425781 84.019531 C 209.441406 84.605469 209.453125 84.625 209.835938 84.660156 L 209.835938 84.867188 L 208.171875 84.867188 L 208.171875 84.660156 C 208.570312 84.625 208.589844 84.605469 208.582031 84.019531 L 208.566406 82.148438 L 208.546875 82.148438 L 207.519531 84.808594 L 207.234375 84.808594 L 206.261719 82.335938 L 206.25 82.335938 L 206.214844 83.515625 C 206.199219 83.96875 206.203125 84.226562 206.222656 84.390625 C 206.246094 84.585938 206.363281 84.632812 206.707031 84.660156 L 206.707031 84.867188 L 205.394531 84.867188 L 205.394531 84.660156 C 205.652344 84.640625 205.75 84.585938 205.78125 84.390625 C 205.808594 84.226562 205.839844 83.941406 205.867188 83.460938 L 205.925781 82.386719 C 205.964844 81.71875 205.921875 81.660156 205.5 81.621094 L 205.5 81.414062 L 206.75 81.414062 L 207.679688 83.519531 L 208.492188 81.414062 L 209.785156 81.414062 "/>
<path style=" stroke:none;fill-rule:nonzero;fill:rgb(5.783081%,12.275696%,27.894592%);fill-opacity:1;" d="M 210.605469 82.265625 C 210.605469 81.691406 210.5625 81.652344 210.207031 81.621094 L 210.207031 81.414062 L 212.726562 81.414062 C 212.730469 81.507812 212.757812 81.894531 212.785156 82.289062 L 212.550781 82.308594 C 212.496094 82.046875 212.4375 81.898438 212.351562 81.8125 C 212.269531 81.722656 212.09375 81.691406 211.8125 81.691406 L 211.722656 81.691406 C 211.519531 81.691406 211.507812 81.691406 211.507812 81.878906 L 211.507812 82.902344 L 211.773438 82.902344 C 212.230469 82.902344 212.246094 82.871094 212.300781 82.46875 L 212.535156 82.46875 L 212.535156 83.71875 L 212.300781 83.71875 C 212.246094 83.253906 212.230469 83.222656 211.773438 83.222656 L 211.507812 83.222656 L 211.507812 84.085938 C 211.507812 84.363281 211.519531 84.496094 211.613281 84.542969 C 211.699219 84.585938 211.820312 84.589844 211.988281 84.589844 C 212.199219 84.589844 212.433594 84.558594 212.550781 84.433594 C 212.640625 84.335938 212.730469 84.140625 212.808594 83.886719 L 213.042969 83.921875 C 213.015625 84.183594 212.90625 84.722656 212.859375 84.867188 L 210.15625 84.867188 L 210.15625 84.660156 C 210.5625 84.628906 210.605469 84.589844 210.605469 84.019531 L 210.605469 82.265625 "/>
<path style=" stroke:none;fill-rule:nonzero;fill:rgb(5.783081%,12.275696%,27.894592%);fill-opacity:1;" d="M 214.234375 83.507812 L 214.914062 83.507812 L 214.578125 82.492188 L 214.5625 82.492188 Z M 214.910156 84.660156 L 215.066406 84.640625 C 215.265625 84.613281 215.273438 84.558594 215.207031 84.367188 L 215.015625 83.828125 L 214.144531 83.828125 L 213.984375 84.335938 C 213.914062 84.566406 213.914062 84.617188 214.160156 84.644531 L 214.3125 84.660156 L 214.3125 84.867188 L 213.074219 84.867188 L 213.074219 84.660156 C 213.347656 84.625 213.425781 84.601562 213.601562 84.15625 L 214.664062 81.410156 L 215.03125 81.335938 L 215.390625 82.339844 C 215.621094 82.972656 215.847656 83.597656 216.050781 84.140625 C 216.21875 84.601562 216.316406 84.628906 216.578125 84.660156 L 216.578125 84.867188 L 214.910156 84.867188 L 214.910156 84.660156 "/>
<path style=" stroke:none;fill-rule:nonzero;fill:rgb(100%,100%,100%);fill-opacity:1;" d="M 195.984375 127.601562 C 195.984375 128.367188 195.359375 128.992188 194.59375 128.992188 C 193.828125 128.992188 193.203125 128.367188 193.203125 127.601562 C 193.203125 126.835938 193.828125 126.210938 194.59375 126.210938 C 195.359375 126.210938 195.984375 126.835938 195.984375 127.601562 "/>
<path style=" stroke:none;fill-rule:nonzero;fill:rgb(100%,100%,100%);fill-opacity:1;" d="M 210.070312 129.910156 C 210.070312 130.679688 209.449219 131.300781 208.679688 131.300781 C 207.914062 131.300781 207.292969 130.679688 207.292969 129.910156 C 207.292969 129.144531 207.914062 128.523438 208.679688 128.523438 C 209.449219 128.523438 210.070312 129.144531 210.070312 129.910156 "/>
<path style=" stroke:none;fill-rule:nonzero;fill:rgb(100%,100%,100%);fill-opacity:1;" d="M 202.109375 29.519531 C 202.109375 30.289062 201.484375 30.910156 200.71875 30.910156 C 199.953125 30.910156 199.328125 30.289062 199.328125 29.519531 C 199.328125 28.753906 199.953125 28.132812 200.71875 28.132812 C 201.484375 28.132812 202.109375 28.753906 202.109375 29.519531 "/>
<path style=" stroke:none;fill-rule:nonzero;fill:rgb(100%,100%,100%);fill-opacity:1;" d="M 235.164062 42.523438 C 235.132812 43.289062 234.484375 43.886719 233.71875 43.851562 C 232.953125 43.820312 232.359375 43.171875 232.390625 42.40625 C 232.421875 41.640625 233.070312 41.046875 233.835938 41.078125 C 234.601562 41.109375 235.199219 41.757812 235.164062 42.523438 "/>
<path style=" stroke:none;fill-rule:nonzero;fill:rgb(100%,100%,100%);fill-opacity:1;" d="M 165.496094 102.152344 C 166.03125 102.921875 166.300781 103.742188 166.300781 104.59375 C 166.296875 105.566406 165.972656 106.351562 164.234375 107.554688 L 159.21875 111.128906 L 158.296875 109.800781 C 158.296875 109.800781 163.433594 106.140625 163.519531 106.085938 C 164.40625 105.472656 164.78125 105.023438 164.785156 104.320312 C 164.785156 103.878906 164.621094 103.390625 164.300781 102.929688 C 163.796875 102.207031 163.152344 101.976562 162.585938 101.972656 C 162.070312 101.972656 161.515625 102.335938 160.527344 103.023438 L 155.808594 106.222656 L 154.902344 104.921875 L 159.390625 101.878906 C 160.640625 101.003906 161.636719 100.398438 162.558594 100.402344 C 163.910156 100.402344 164.894531 101.28125 165.496094 102.152344 "/>
<path style=" stroke:none;fill-rule:nonzero;fill:rgb(100%,100%,100%);fill-opacity:1;" d="M 149.46875 92.359375 L 159.011719 89.011719 L 159.539062 90.460938 L 154.078125 97.128906 L 160.980469 94.398438 L 161.492188 95.808594 L 152.058594 99.429688 L 151.53125 97.984375 L 157.019531 91.308594 L 149.980469 93.769531 L 149.46875 92.359375 "/>
<path style=" stroke:none;fill-rule:nonzero;fill:rgb(100%,100%,100%);fill-opacity:1;" d="M 148.039062 84.761719 L 158.03125 83.277344 L 158.265625 84.878906 L 148.277344 86.359375 L 148.039062 84.761719 "/>
<path style=" stroke:none;fill-rule:nonzero;fill:rgb(100%,100%,100%);fill-opacity:1;" d="M 147.746094 72.71875 L 147.785156 71.042969 L 157.753906 75.09375 L 157.683594 76.757812 L 147.445312 79.808594 L 147.457031 78.128906 L 155.757812 75.804688 L 147.746094 72.71875 "/>
<path style=" stroke:none;fill-rule:nonzero;fill:rgb(100%,100%,100%);fill-opacity:1;" d="M 155.0625 53.183594 C 155.65625 52.109375 156.078125 51.699219 156.703125 51.703125 C 156.9375 51.703125 157.226562 51.761719 157.523438 51.921875 C 157.902344 52.132812 158.191406 52.480469 158.296875 52.855469 C 158.339844 53.003906 158.359375 53.148438 158.355469 53.292969 C 158.351562 53.894531 158.019531 54.496094 157.667969 55.128906 L 157.460938 55.5 L 154.617188 53.972656 Z M 156.859375 50.125 C 155.433594 50.128906 154.773438 50.945312 153.863281 52.589844 L 152.675781 54.714844 L 161.570312 59.542969 L 162.339844 58.152344 L 158.644531 56.136719 L 158.859375 55.734375 C 159.480469 54.609375 159.695312 54.441406 161.28125 54.574219 L 164.164062 54.828125 L 164.988281 53.335938 L 161.667969 53.054688 C 161 52.992188 160.472656 52.941406 160.046875 53.066406 C 159.90625 53.109375 159.734375 53.195312 159.570312 53.3125 C 159.609375 53.128906 159.675781 52.953125 159.679688 52.773438 C 159.679688 52.488281 159.640625 52.207031 159.554688 51.949219 C 159.359375 51.355469 158.9375 50.875 158.296875 50.519531 C 157.820312 50.257812 157.34375 50.125 156.859375 50.125 "/>
<path style=" stroke:none;fill-rule:nonzero;fill:rgb(100%,100%,100%);fill-opacity:1;" d="M 167.910156 35.855469 L 169.199219 34.871094 L 175.324219 42.898438 L 174.039062 43.878906 L 167.910156 35.855469 "/>
<path style=" stroke:none;fill-rule:nonzero;fill:rgb(100%,100%,100%);fill-opacity:1;" d="M 173.457031 31.914062 L 179.988281 28.515625 L 180.628906 29.742188 L 178.085938 31.066406 L 182.109375 38.796875 L 180.675781 39.542969 L 176.652344 31.8125 L 174.09375 33.144531 L 173.457031 31.914062 "/>
<path style=" stroke:none;fill-rule:nonzero;fill:rgb(100%,100%,100%);fill-opacity:1;" d="M 189.753906 25.445312 L 191.457031 24.96875 L 190.085938 31.726562 L 191.195312 35.5625 L 189.65625 36.003906 L 188.570312 32.199219 L 183.777344 27.195312 L 185.433594 26.714844 L 188.886719 30.308594 L 189.753906 25.445312 "/>
<path style=" stroke:none;fill-rule:nonzero;fill:rgb(100%,100%,100%);fill-opacity:1;" d="M 220.566406 39.25 L 225.695312 30.550781 L 230.519531 33.390625 L 229.816406 34.582031 L 226.371094 32.550781 L 224.953125 34.960938 L 228.195312 36.867188 L 227.511719 38.035156 L 224.269531 36.121094 L 221.949219 40.0625 L 220.566406 39.25 "/>
<path style=" stroke:none;fill-rule:nonzero;fill:rgb(100%,100%,100%);fill-opacity:1;" d="M 246.515625 61.746094 L 250.191406 57.34375 L 250.761719 59.085938 L 248.023438 62.21875 L 252.09375 63.132812 L 252.632812 64.773438 L 247.066406 63.429688 L 243.117188 68.164062 L 242.554688 66.453125 L 245.535156 62.976562 L 241.074219 61.957031 L 240.53125 60.300781 L 246.515625 61.746094 "/>
<path style=" stroke:none;fill-rule:nonzero;fill:rgb(100%,100%,100%);fill-opacity:1;" d="M 243.625 71.667969 L 253.691406 70.847656 L 254.148438 76.429688 L 252.769531 76.539062 L 252.445312 72.554688 L 249.660156 72.78125 L 249.96875 76.535156 L 248.621094 76.644531 L 248.3125 72.894531 L 243.757812 73.265625 L 243.625 71.667969 "/>
<path style=" stroke:none;fill-rule:nonzero;fill:rgb(100%,100%,100%);fill-opacity:1;" d="M 248.871094 88.367188 C 246.90625 88.367188 244.609375 87.292969 244.609375 85.3125 C 244.609375 84.59375 244.859375 83.628906 245.746094 82.984375 C 246.347656 82.546875 247.125 82.316406 247.996094 82.316406 C 249 82.316406 250.804688 82.597656 251.753906 83.90625 C 252.078125 84.355469 252.246094 84.878906 252.246094 85.4375 C 252.246094 86.210938 251.929688 87.128906 251.101562 87.730469 C 250.511719 88.152344 249.742188 88.367188 248.871094 88.367188 Z M 248.078125 80.671875 C 246.910156 80.671875 245.839844 80.984375 244.992188 81.601562 C 243.464844 82.707031 243.1875 84.292969 243.1875 85.222656 C 243.1875 88.636719 246.398438 90 248.804688 90 C 249.964844 90.003906 251.023438 89.6875 251.855469 89.082031 C 253.558594 87.851562 253.652344 86 253.652344 85.402344 C 253.652344 82.425781 250.910156 80.671875 248.078125 80.671875 "/>
<path style=" stroke:none;fill-rule:nonzero;fill:rgb(100%,100%,100%);fill-opacity:1;" d="M 240.644531 55.28125 C 239.738281 55.28125 238.917969 54.902344 238.355469 54.011719 C 238.066406 53.558594 237.925781 53.070312 237.925781 52.574219 C 237.921875 51.433594 238.644531 50.261719 239.96875 49.417969 C 240.84375 48.863281 241.703125 48.589844 242.476562 48.59375 C 243.449219 48.59375 244.242188 49.019531 244.769531 49.855469 C 245.082031 50.347656 245.222656 50.871094 245.222656 51.394531 C 245.222656 52.507812 244.519531 53.601562 243.238281 54.410156 C 242.339844 54.980469 241.4375 55.28125 240.644531 55.28125 Z M 242.214844 47.054688 C 241.195312 47.054688 240.109375 47.378906 239.0625 48.042969 C 237.121094 49.273438 236.414062 51.035156 236.414062 52.324219 C 236.414062 53.15625 236.644531 53.976562 237.117188 54.726562 C 238.195312 56.425781 239.8125 56.839844 240.902344 56.835938 C 241.945312 56.828125 243.046875 56.484375 244.082031 55.824219 C 245.332031 55.035156 246.722656 53.5625 246.722656 51.570312 C 246.722656 50.742188 246.484375 49.925781 246.007812 49.171875 C 245.125 47.78125 243.738281 47.054688 242.214844 47.054688 "/>
<path style=" stroke:none;fill-rule:nonzero;fill:rgb(100%,100%,100%);fill-opacity:1;" d="M 214.144531 35.261719 C 213.414062 35.261719 212.359375 34.90625 211.769531 33.828125 C 211.484375 33.304688 211.355469 32.671875 211.355469 32.015625 C 211.355469 30.207031 212.5625 27.671875 214.761719 27.671875 C 215.996094 27.671875 217.550781 28.589844 217.550781 30.871094 C 217.550781 32.328125 216.523438 35.261719 214.144531 35.261719 Z M 214.664062 26.257812 C 212.5625 26.257812 210.730469 27.671875 209.988281 30.191406 C 209.824219 30.75 209.722656 31.304688 209.722656 31.839844 C 209.722656 32.847656 209.890625 33.648438 210.304688 34.402344 C 211.238281 36.109375 212.949219 36.691406 214.25 36.691406 C 214.980469 36.691406 215.691406 36.523438 216.339844 36.171875 C 218.042969 35.238281 219.167969 33.078125 219.167969 31.007812 C 219.167969 30.109375 218.992188 29.261719 218.59375 28.539062 C 217.773438 27.046875 216.253906 26.257812 214.664062 26.257812 "/>
<path style=" stroke:none;fill-rule:nonzero;fill:rgb(100%,100%,100%);fill-opacity:1;" d="M 158.730469 62.878906 L 160.089844 63.261719 L 158.558594 68.808594 L 148.785156 66.128906 L 150.453125 60.519531 L 151.78125 60.894531 L 150.554688 64.9375 L 153.25 65.675781 L 154.289062 62.003906 L 155.589844 62.371094 L 154.554688 66.035156 L 157.601562 66.871094 L 158.730469 62.878906 "/>
<path style=" stroke:none;fill-rule:nonzero;fill:rgb(100%,100%,100%);fill-opacity:1;" d="M 161.292969 41.78125 C 162.699219 40.210938 164.132812 40.316406 164.132812 40.316406 L 164.378906 41.648438 C 164.378906 41.648438 163.269531 41.683594 162.40625 42.65625 C 162.027344 43.078125 161.839844 43.519531 161.839844 43.914062 C 161.839844 44.242188 161.964844 44.53125 162.222656 44.757812 C 162.921875 45.382812 164.117188 44.6875 164.867188 44.390625 C 165.441406 44.152344 166.257812 43.816406 167.074219 43.816406 C 167.6875 43.816406 168.316406 43.992188 168.894531 44.507812 C 169.566406 45.105469 169.902344 45.859375 169.902344 46.652344 C 169.902344 47.511719 169.570312 48.273438 168.898438 49.023438 C 167.609375 50.464844 165.878906 50.621094 165.878906 50.621094 L 165.535156 49.273438 C 166.554688 49.035156 167.328125 48.644531 167.796875 48.117188 C 168.164062 47.707031 168.34375 47.242188 168.34375 46.839844 C 168.34375 46.457031 168.1875 46.101562 167.875 45.824219 C 167.621094 45.597656 167.3125 45.515625 166.980469 45.523438 C 166.332031 45.523438 165.554688 45.894531 164.914062 46.160156 C 163.6875 46.667969 162.390625 47.078125 161.234375 46.042969 C 160.644531 45.515625 160.332031 44.855469 160.332031 44.117188 C 160.332031 43.339844 160.636719 42.515625 161.292969 41.78125 "/>
<path style=" stroke:none;fill-rule:nonzero;fill:rgb(100%,100%,100%);fill-opacity:1;" d="M 246.90625 99.726562 C 246.449219 99.730469 245.679688 99.464844 245.386719 98.714844 C 245.3125 98.523438 245.28125 98.328125 245.285156 98.132812 C 245.289062 97.578125 245.550781 97.003906 245.820312 96.402344 L 245.992188 96.011719 L 248.902344 97.320312 L 248.582031 98.101562 C 248.035156 99.335938 247.683594 99.726562 246.90625 99.726562 Z M 240.945312 93.738281 L 244.761719 95.464844 L 244.574219 95.894531 C 244.054688 97.070312 243.855469 97.261719 242.261719 97.269531 L 239.371094 97.269531 L 238.679688 98.828125 L 242.015625 98.820312 C 242.6875 98.820312 243.214844 98.820312 243.625 98.660156 C 243.757812 98.609375 243.910156 98.527344 244.050781 98.410156 C 244.042969 98.5 244.011719 98.582031 244.011719 98.667969 C 244.007812 99.039062 244.078125 99.40625 244.214844 99.730469 C 244.671875 100.796875 245.917969 101.320312 246.828125 101.316406 C 248.433594 101.316406 249.046875 100.355469 249.828125 98.585938 C 249.859375 98.519531 250.765625 96.421875 250.765625 96.421875 L 241.585938 92.285156 L 240.945312 93.738281 "/>
<path style=" stroke:none;fill-rule:nonzero;fill:rgb(100%,100%,100%);fill-opacity:1;" d="M 239.226562 110.894531 C 238.421875 110.894531 237.667969 110.585938 236.886719 109.960938 C 236.089844 109.324219 235.246094 108.335938 235.246094 107.074219 C 235.246094 106.195312 235.722656 105.359375 236.457031 104.441406 L 237.125 103.605469 L 242.890625 108.207031 L 242.453125 108.761719 C 241.378906 110.101562 240.648438 110.894531 239.226562 110.894531 Z M 235.625 103.292969 C 234.578125 104.601562 233.785156 105.773438 233.785156 107.289062 C 233.785156 108.574219 234.367188 110.035156 235.84375 111.214844 C 236.824219 111.996094 237.929688 112.421875 239.070312 112.421875 C 240.476562 112.421875 241.605469 112 243.351562 109.808594 L 244.949219 107.800781 L 237.058594 101.5 L 235.625 103.292969 "/>
<path style=" stroke:none;fill-rule:nonzero;fill:rgb(100%,100%,100%);fill-opacity:1;" d="M 234.6875 122.503906 C 225.289062 125.828125 216.515625 125.597656 209.035156 123.925781 C 209.277344 120.585938 210.660156 117.011719 212.777344 116.347656 C 229.257812 111.238281 241.261719 95.871094 241.261719 77.761719 C 241.261719 55.484375 223.105469 37.363281 200.789062 37.363281 C 178.46875 37.363281 160.3125 55.484375 160.3125 77.761719 C 160.3125 90.152344 166.101562 101.925781 175.84375 109.558594 C 173.53125 110.574219 171.558594 112.21875 170.132812 114.265625 C 169.390625 113.761719 168.679688 113.242188 168.019531 112.699219 L 167.652344 113.070312 C 168.09375 113.601562 168.777344 114.304688 169.597656 115.089844 C 168.398438 117.109375 167.703125 119.457031 167.703125 121.96875 C 167.703125 122.359375 167.730469 122.746094 167.761719 123.128906 C 153.261719 112.5625 144.648438 95.761719 144.648438 77.761719 C 144.648438 46.808594 169.832031 21.625 200.789062 21.625 C 231.742188 21.625 256.925781 46.808594 256.925781 77.761719 C 256.925781 95.492188 248.820312 111.78125 234.6875 122.503906 Z M 202.117188 135.753906 C 194.363281 135.753906 184.679688 133.117188 178.027344 129.191406 C 176.011719 128.003906 173.609375 125.792969 173.609375 122.011719 C 173.609375 120.992188 173.8125 120.015625 174.164062 119.121094 C 176.648438 121.175781 179.214844 123.097656 180.824219 123.980469 C 181.195312 124.183594 181.40625 124.28125 181.839844 124.28125 C 182.871094 124.28125 183.710938 123.441406 183.710938 122.402344 C 183.710938 121.609375 183.28125 120.96875 182.570312 120.65625 C 181.195312 120.054688 178.3125 118.863281 175.214844 117.257812 C 176.648438 115.367188 178.90625 114.136719 181.449219 114.136719 C 182.613281 114.136719 183.734375 114.386719 184.777344 114.878906 L 186.902344 116.117188 C 193.664062 120.246094 211.054688 130.835938 232.050781 125.015625 C 224.082031 132.210938 214.265625 135.753906 202.117188 135.753906 Z M 208.765625 140.476562 C 206.632812 140.476562 204.882812 141.988281 204.882812 144.304688 C 204.882812 146.570312 206.65625 148.132812 208.765625 148.132812 C 209.089844 148.132812 209.394531 148.078125 209.691406 148 C 209.246094 151.207031 205.511719 154.796875 200.691406 156.410156 C 195.910156 154.8125 192.175781 151.195312 191.679688 148.003906 C 191.976562 148.078125 192.28125 148.132812 192.601562 148.132812 C 194.898438 148.132812 196.480469 146.519531 196.480469 144.304688 C 196.480469 142.191406 194.824219 140.535156 192.683594 140.488281 C 193.335938 139.292969 193.960938 138.023438 194.425781 136.664062 C 197.078125 137.125 199.6875 137.378906 202.117188 137.378906 C 204.109375 137.378906 206.042969 137.269531 207.933594 137.078125 C 208.183594 138.171875 208.554688 139.316406 208.992188 140.496094 C 208.917969 140.492188 208.84375 140.476562 208.765625 140.476562 Z M 181.328125 110.023438 C 185.316406 110.023438 189.050781 112.070312 191.242188 115.351562 C 189.324219 114.863281 187.441406 114.230469 185.605469 113.449219 L 185.597656 113.460938 L 185.539062 113.425781 C 184.253906 112.820312 182.878906 112.511719 181.449219 112.511719 C 178.269531 112.511719 175.457031 114.070312 173.71875 116.457031 C 172.988281 116.050781 172.257812 115.625 171.539062 115.179688 C 173.691406 112.070312 177.273438 110.023438 181.328125 110.023438 Z M 197.125 117.988281 C 196.632812 118.355469 196.234375 118.792969 195.953125 119.277344 C 194.488281 118.566406 192.648438 117.648438 191.445312 116.976562 C 193.148438 117.355469 195.375 117.832031 197.125 117.988281 Z M 209.410156 117.226562 C 208.25 118.882812 207.558594 121.191406 207.351562 123.523438 C 203.683594 122.578125 200.355469 121.308594 197.449219 119.984375 C 198.003906 118.914062 199.582031 118.160156 200.789062 118.160156 C 203.746094 118.160156 206.628906 117.832031 209.410156 117.226562 Z M 200.789062 116.535156 C 198.308594 116.535156 195.867188 116.296875 193.476562 115.839844 C 191.167969 111.3125 186.4375 108.398438 181.328125 108.398438 C 180.070312 108.398438 178.859375 108.585938 177.707031 108.902344 C 167.882812 101.601562 162.023438 89.996094 162.023438 77.761719 C 162.023438 56.382812 179.414062 38.988281 200.789062 38.988281 C 222.160156 38.988281 239.550781 56.382812 239.550781 77.761719 C 239.550781 99.140625 222.160156 116.535156 200.789062 116.535156 Z M 181.328125 133.914062 C 174.757812 133.914062 169.414062 128.558594 169.414062 121.96875 C 169.414062 119.90625 169.941406 117.964844 170.863281 116.269531 C 171.476562 116.824219 172.132812 117.402344 172.8125 117.984375 C 172.234375 119.210938 171.898438 120.570312 171.898438 122.011719 C 171.898438 125.59375 173.707031 128.554688 177.125 130.570312 C 179.089844 131.730469 181.3125 132.773438 183.664062 133.683594 C 182.902344 133.835938 182.121094 133.914062 181.328125 133.914062 Z M 258.636719 77.761719 C 258.636719 45.910156 232.6875 20 200.789062 20 C 168.890625 20 142.9375 45.910156 142.9375 77.761719 C 142.9375 96.867188 152.371094 114.675781 168.179688 125.46875 C 169.734375 131.257812 175.03125 135.539062 181.328125 135.539062 C 183.027344 135.539062 184.679688 135.21875 186.246094 134.609375 C 188.363281 135.308594 190.550781 135.886719 192.730469 136.335938 C 192.117188 138.089844 191.222656 139.753906 190.367188 141.191406 C 190.367188 141.191406 190.386719 141.1875 190.414062 141.183594 C 190.398438 141.191406 190.382812 141.199219 190.367188 141.210938 L 191.570312 142.417969 C 191.878906 142.25 192.226562 142.144531 192.601562 142.144531 C 193.789062 142.144531 194.757812 143.113281 194.757812 144.304688 C 194.757812 145.496094 193.789062 146.464844 192.601562 146.464844 C 191.558594 146.464844 190.648438 145.796875 190.171875 145.085938 C 190.171875 145.085938 189.890625 146.058594 189.890625 147.339844 C 189.882812 151.488281 194.410156 156.226562 200.691406 158.226562 C 206.964844 156.273438 211.496094 151.496094 211.492188 147.34375 C 211.492188 145.914062 211.210938 145.085938 211.210938 145.085938 C 210.726562 145.664062 209.945312 146.464844 208.765625 146.464844 C 207.574219 146.464844 206.605469 145.496094 206.605469 144.304688 C 206.605469 143.113281 207.574219 142.144531 208.765625 142.144531 C 209.183594 142.144531 209.570312 142.269531 209.902344 142.476562 L 211.070312 141.304688 C 211.097656 141.3125 211.113281 141.316406 211.113281 141.316406 C 210.453125 139.734375 209.972656 138.28125 209.640625 136.886719 C 220.042969 135.484375 228.820312 131.082031 235.800781 123.746094 L 235.792969 123.738281 C 250.3125 112.707031 258.636719 95.972656 258.636719 77.761719 "/>
</g>
</svg>
